<svg width="21" height="19" viewBox="0 0 21 19" fill="none" xmlns="http://www.w3.org/2000/svg">
<path fill-rule="evenodd" clip-rule="evenodd" d="M2.56067 0.397498C1.97487 -0.132499 1.02513 -0.132499 0.43934 0.397498C-0.146447 0.927495 -0.146447 1.78679 0.43934 2.31679L8.37868 9.5L0.43934 16.6832C-0.146447 17.2132 -0.146447 18.0725 0.43934 18.6025C1.02513 19.1325 1.97487 19.1325 2.56067 18.6025L10.5 11.4193L18.4393 18.6025C19.0251 19.1325 19.9749 19.1325 20.5606 18.6025C21.1464 18.0725 21.1464 17.2132 20.5606 16.6832L12.6213 9.5L20.5606 2.31679C21.1464 1.78679 21.1464 0.927495 20.5606 0.397498C19.9749 -0.132499 19.0251 -0.132499 18.4393 0.397498L10.5 7.58071L2.56067 0.397498Z" fill="black"/>
</svg>
