<svg width="60" height="60" viewBox="0 0 60 60" fill="none" xmlns="http://www.w3.org/2000/svg">
<path d="M43.75 47.5C47.2018 47.5 50 44.7018 50 41.25C50 37.7982 47.2018 35 43.75 35C40.2982 35 37.5 37.7982 37.5 41.25C37.5 44.7018 40.2982 47.5 43.75 47.5Z" fill="black" fill-opacity="0.15"/>
<path d="M16.25 50C19.7018 50 22.5 47.2018 22.5 43.75C22.5 40.2982 19.7018 37.5 16.25 37.5C12.7982 37.5 10 40.2982 10 43.75C10 47.2018 12.7982 50 16.25 50Z" fill="black" fill-opacity="0.15"/>
<path d="M22.5 43.75V15L50 7.5V41.25M22.5 43.75C22.5 47.2018 19.7018 50 16.25 50C12.7982 50 10 47.2018 10 43.75C10 40.2982 12.7982 37.5 16.25 37.5C19.7018 37.5 22.5 40.2982 22.5 43.75ZM50 41.25C50 44.7018 47.2018 47.5 43.75 47.5C40.2982 47.5 37.5 44.7018 37.5 41.25C37.5 37.7982 40.2982 35 43.75 35C47.2018 35 50 37.7982 50 41.25Z" stroke="black" stroke-width="2" stroke-linecap="round" stroke-linejoin="round"/>
</svg>
