<svg width="91" height="90" viewBox="0 0 91 90" fill="none" xmlns="http://www.w3.org/2000/svg">
<path fill-rule="evenodd" clip-rule="evenodd" d="M50.3215 5.47121C50.3215 2.80841 48.1628 0.64978 45.5 0.64978C42.8373 0.64978 40.6786 2.80841 40.6786 5.47121V84.5293C40.6786 87.192 42.8373 89.3507 45.5 89.3507C48.1628 89.3507 50.3215 87.192 50.3215 84.5293V5.47121ZM26.2143 15.8533C28.8771 15.8533 31.0358 18.0119 31.0358 20.6747V69.3257C31.0358 71.9891 28.8771 74.1472 26.2143 74.1472C23.5515 74.1472 21.3929 71.9891 21.3929 69.3257V20.6747C21.3929 18.0119 23.5515 15.8533 26.2143 15.8533ZM6.92861 31.0568C9.59138 31.0568 11.75 33.2154 11.75 35.8782V54.1225C11.75 56.7853 9.59138 58.9439 6.92861 58.9439C4.2658 58.9439 2.10718 56.7853 2.10718 54.1225V35.8782C2.10718 33.2154 4.2658 31.0568 6.92861 31.0568ZM64.7858 15.8533C67.4485 15.8533 69.6072 18.0119 69.6072 20.6747V69.3257C69.6072 71.9891 67.4485 74.1472 64.7858 74.1472C62.123 74.1472 59.9643 71.9891 59.9643 69.3257V20.6747C59.9643 18.0119 62.123 15.8533 64.7858 15.8533ZM88.8929 35.8782C88.8929 33.2154 86.7342 31.0568 84.0715 31.0568C81.4088 31.0568 79.25 33.2154 79.25 35.8782V54.1225C79.25 56.7853 81.4088 58.9439 84.0715 58.9439C86.7342 58.9439 88.8929 56.7853 88.8929 54.1225V35.8782Z" fill="black"/>
</svg>
