<svg width="87" height="90" viewBox="0 0 87 90" fill="none" xmlns="http://www.w3.org/2000/svg">
<path fill-rule="evenodd" clip-rule="evenodd" d="M48.3215 5.47121C48.3215 2.80841 46.1628 0.64978 43.5 0.64978C40.8373 0.64978 38.6786 2.80841 38.6786 5.47121V84.5293C38.6786 87.192 40.8373 89.3507 43.5 89.3507C46.1628 89.3507 48.3215 87.192 48.3215 84.5293V5.47121ZM24.2143 15.8533C26.8771 15.8533 29.0358 18.0119 29.0358 20.6747V69.3257C29.0358 71.9891 26.8771 74.1472 24.2143 74.1472C21.5515 74.1472 19.3929 71.9891 19.3929 69.3257V20.6747C19.3929 18.0119 21.5515 15.8533 24.2143 15.8533ZM4.92861 31.0568C7.59138 31.0568 9.75004 33.2154 9.75004 35.8782V54.1225C9.75004 56.7853 7.59138 58.9439 4.92861 58.9439C2.2658 58.9439 0.107178 56.7853 0.107178 54.1225V35.8782C0.107178 33.2154 2.2658 31.0568 4.92861 31.0568ZM62.7858 15.8533C65.4485 15.8533 67.6072 18.0119 67.6072 20.6747V69.3257C67.6072 71.9891 65.4485 74.1472 62.7858 74.1472C60.123 74.1472 57.9643 71.9891 57.9643 69.3257V20.6747C57.9643 18.0119 60.123 15.8533 62.7858 15.8533ZM86.8929 35.8782C86.8929 33.2154 84.7342 31.0568 82.0715 31.0568C79.4088 31.0568 77.25 33.2154 77.25 35.8782V54.1225C77.25 56.7853 79.4088 58.9439 82.0715 58.9439C84.7342 58.9439 86.8929 56.7853 86.8929 54.1225V35.8782Z" fill="black"/>
</svg>
